<svg width="35" height="56" viewBox="0 0 35 56" fill="none" xmlns="http://www.w3.org/2000/svg">
<path d="M12.5 31L23.3253 37.25V49.75L12.5 56L1.67468 49.75V37.25L12.5 31Z" fill="#18BA51"/>
<path d="M5.27276 39.3274L12.5 35.1547L19.7272 39.3274V47.6727L12.5 51.8453L5.27276 47.6727V39.3274Z" fill="#1D1F24" stroke="#303030" stroke-width="2"/>
<path fill-rule="evenodd" clip-rule="evenodd" d="M11 1C11 0.447716 11.4477 0 12 0C12.5523 0 13 0.447715 13 1V4H21.6842L21.8623 5H35V20H23.4668L22.9735 17H13V42C13 42.5523 12.5523 43 12 43C11.4477 43 11 42.5523 11 42V1Z" fill="#D9D9D9"/>
<path d="M14.56 14V8.4H17.208C17.8267 8.4 18.3707 8.51467 18.84 8.744C19.3093 8.97333 19.6747 9.296 19.936 9.712C20.2027 10.128 20.336 10.624 20.336 11.2C20.336 11.7707 20.2027 12.2667 19.936 12.688C19.6747 13.104 19.3093 13.4267 18.84 13.656C18.3707 13.8853 17.8267 14 17.208 14H14.56ZM16.144 12.736H17.144C17.464 12.736 17.7413 12.6773 17.976 12.56C18.216 12.4373 18.4027 12.2613 18.536 12.032C18.6693 11.7973 18.736 11.52 18.736 11.2C18.736 10.8747 18.6693 10.5973 18.536 10.368C18.4027 10.1387 18.216 9.96533 17.976 9.848C17.7413 9.72533 17.464 9.664 17.144 9.664H16.144V12.736ZM20.7713 14V13.008L22.8673 11.048C23.0166 10.9093 23.1259 10.7867 23.1953 10.68C23.2699 10.5733 23.3179 10.4773 23.3393 10.392C23.3659 10.3013 23.3793 10.2187 23.3793 10.144C23.3793 9.96267 23.3179 9.82133 23.1953 9.72C23.0779 9.61867 22.8993 9.568 22.6593 9.568C22.4566 9.568 22.2673 9.61333 22.0913 9.704C21.9153 9.79467 21.7713 9.93067 21.6593 10.112L20.4832 9.456C20.6912 9.104 20.9926 8.82133 21.3873 8.608C21.7819 8.39467 22.2539 8.288 22.8033 8.288C23.2353 8.288 23.6139 8.35733 23.9393 8.496C24.2646 8.63467 24.5179 8.832 24.6993 9.088C24.8859 9.344 24.9793 9.64533 24.9793 9.992C24.9793 10.1733 24.9553 10.3547 24.9073 10.536C24.8593 10.712 24.7659 10.9013 24.6273 11.104C24.4939 11.3013 24.2939 11.5227 24.0273 11.768L22.3633 13.304L22.0993 12.744H25.1313V14H20.7713Z" fill="black"/>
</svg>
